<?xml version="1.0" standalone="no"?>
<!DOCTYPE svg PUBLIC "-//W3C//DTD SVG 20010904//EN"
 "http://www.w3.org/TR/2001/REC-SVG-20010904/DTD/svg10.dtd">
<svg version="1.0" xmlns="http://www.w3.org/2000/svg"
 width="192.000000pt" height="192.000000pt" viewBox="0 0 192.000000 192.000000"
 preserveAspectRatio="xMidYMid meet">
<metadata>
Created by potrace 1.14, written by Peter Selinger 2001-2017
</metadata>
<g transform="translate(0.000000,192.000000) scale(0.100000,-0.100000)"
fill="#000000" stroke="none">
<path d="M170 1745 l0 -174 -87 -4 -88 -3 88 -2 87 -2 0 -105 0 -105 -85 0
c-50 0 -85 -4 -85 -10 0 -6 35 -10 85 -10 l85 0 0 -105 0 -104 -87 -4 -88 -3
88 -2 87 -2 0 -110 0 -109 -87 -4 -88 -3 88 -2 87 -2 0 -105 0 -105 -80 0
c-47 0 -80 -4 -80 -10 0 -6 33 -10 80 -10 l80 0 0 -105 0 -104 -82 -4 -83 -3
83 -2 82 -2 0 -110 0 -109 -82 -4 -83 -3 83 -2 82 -2 0 -100 c0 -60 4 -100 10
-100 6 0 10 40 10 100 l0 100 100 0 100 0 0 -100 c0 -60 4 -100 10 -100 6 0
10 40 10 100 l0 100 100 0 100 0 0 -100 c0 -60 4 -100 10 -100 6 0 10 40 10
100 l0 100 100 0 100 0 0 -100 c0 -60 4 -100 10 -100 6 0 10 40 10 100 l0 100
100 0 100 0 0 -100 c0 -60 4 -100 10 -100 6 0 10 40 10 100 l0 100 100 0 100
0 0 -100 c0 -60 4 -100 10 -100 6 0 10 40 10 100 l0 100 100 0 100 0 0 -100
c0 -60 4 -100 10 -100 6 0 10 40 10 100 l0 100 100 0 100 0 0 -100 c0 -60 4
-100 10 -100 6 0 10 40 10 100 l0 99 98 4 97 3 -97 2 -98 2 0 110 0 109 98 4
97 3 -97 2 -98 2 0 105 0 105 95 0 c57 0 95 4 95 10 0 6 -38 10 -95 10 l-95 0
0 105 0 104 98 4 97 3 -97 2 -98 2 0 110 0 109 98 4 97 3 -97 2 -98 2 0 105 0
105 95 0 c57 0 95 4 95 10 0 6 -38 10 -95 10 l-95 0 0 105 0 104 98 4 97 3
-97 2 -98 2 0 94 c0 71 4 98 15 110 8 8 15 17 15 20 0 3 -7 6 -15 6 -12 0 -15
13 -15 60 0 33 -4 60 -10 60 -5 0 -10 -21 -10 -47 0 -55 -12 -79 -31 -68 -9 6
-11 3 -6 -9 4 -10 7 -24 7 -32 0 -8 7 -14 15 -14 13 0 15 -14 13 -87 l-3 -88
-98 -3 -98 -3 3 96 c2 52 7 95 12 94 5 0 13 5 17 13 7 10 9 10 9 -2 0 -13 1
-13 10 0 16 24 12 30 -20 30 l-30 0 0 60 c0 79 -18 77 -22 -2 -3 -55 -6 -63
-23 -64 -11 -1 -29 -3 -40 -4 l-20 -1 20 -8 c11 -5 30 -5 43 0 22 8 22 8 22
-101 l0 -110 -100 0 -100 0 0 99 c0 67 4 102 12 107 6 4 14 2 16 -4 2 -8 8 -8
18 2 21 21 18 26 -16 26 l-30 0 0 60 c0 33 -4 60 -9 60 -14 0 -20 -123 -7
-139 6 -8 6 -12 1 -9 -7 4 -9 -29 -7 -98 l4 -104 -101 0 -101 0 0 175 c0 110
-4 175 -10 175 -11 0 -13 -52 -10 -237 l1 -113 -100 0 -101 0 0 175 c0 110 -4
175 -10 175 -10 0 -12 -47 -10 -242 l1 -108 -100 0 -101 0 0 175 c0 110 -4
175 -10 175 -10 0 -12 -47 -10 -242 l1 -108 -100 0 -101 0 0 175 c0 110 -4
175 -10 175 -11 0 -13 -52 -10 -237 l1 -113 -100 0 -101 0 0 175 c0 110 -4
175 -10 175 -6 0 -10 -65 -10 -175z m220 -290 l0 -105 -100 0 -100 0 0 105 0
105 100 0 100 0 0 -105z m220 0 c0 -117 7 -107 -75 -107 -19 0 -55 1 -80 1
l-45 1 0 105 0 105 100 0 100 0 0 -105z m220 0 l0 -105 -100 0 -100 0 0 105 0
105 100 0 100 0 0 -105z m220 0 l0 -105 -100 0 -100 0 0 105 0 105 100 0 100
0 0 -105z m220 0 l0 -105 -100 0 -100 0 0 105 0 105 100 0 100 0 0 -105z m220
0 l0 -105 -100 0 -100 0 0 105 0 105 100 0 100 0 0 -105z m218 -2 l3 -103
-101 0 -100 0 0 105 0 106 98 -3 97 -3 3 -102z m-1318 -228 l0 -105 -100 0
-100 0 0 105 0 105 100 0 100 0 0 -105z m95 88 c-5 -10 -17 -44 -29 -76 -18
-50 -19 -59 -6 -67 21 -13 36 4 55 61 9 27 20 49 24 49 11 0 40 -78 48 -124
l6 -36 -87 0 -86 0 0 105 0 105 41 0 c35 0 40 -2 34 -17z m125 -25 l-1 -43
-19 35 c-24 45 -24 50 0 50 17 0 20 -7 20 -42z m220 -63 l0 -105 -92 -2 -93
-2 93 -3 92 -4 0 -110 0 -110 -72 3 -73 3 -27 120 c-18 82 -27 151 -27 218
l-1 97 100 0 100 0 0 -105z m220 35 c0 -69 0 -70 -24 -64 -19 4 -30 -2 -57
-35 -29 -37 -37 -41 -76 -41 l-43 0 0 105 0 105 100 0 100 0 0 -70z m220 -35
l0 -105 -88 0 c-85 0 -89 1 -100 25 -7 14 -12 62 -12 105 l0 80 100 0 100 0 0
-105z m220 0 l0 -105 -100 0 -100 0 0 105 0 105 100 0 100 0 0 -105z m220 0
l0 -105 -100 0 -100 0 0 105 0 105 100 0 100 0 0 -105z m-680 -95 c0 -5 -4
-10 -10 -10 -5 0 -10 5 -10 10 0 6 5 10 10 10 6 0 10 -4 10 -10z m-640 -130
l0 -110 -100 0 -100 0 0 110 0 110 100 0 100 0 0 -110z m209 66 c6 -25 11 -74
11 -110 l0 -66 -100 0 -100 0 0 110 0 110 89 0 89 0 11 -44z m331 33 c0 -6
-12 -55 -27 -110 -37 -137 -53 -134 -53 11 l0 110 40 0 c22 0 40 -5 40 -11z
m115 -99 l0 -105 -57 -3 -58 -3 7 33 c3 18 17 68 30 111 23 74 26 78 51 75
l27 -3 0 -105z m225 21 c0 -68 -4 -93 -16 -105 -34 -35 -58 -14 -109 96 -19
42 -35 81 -35 87 0 7 30 11 80 11 l80 0 0 -89z m220 -21 c0 -85 -3 -110 -13
-110 -8 0 -20 12 -28 26 -7 14 -27 37 -43 51 -32 27 -66 25 -98 -4 -17 -15
-18 -12 -18 65 l0 82 100 0 100 0 0 -110z m218 3 l-3 -108 -97 -3 -98 -3 0
111 0 110 100 0 101 0 -3 -107z m-592 -45 c31 -62 30 -68 -11 -68 l-35 0 1 83
c0 68 2 78 11 57 6 -14 22 -46 34 -72z m284 -60 c0 -4 -18 -8 -40 -8 -45 0
-51 11 -18 34 20 14 24 14 40 -1 10 -9 18 -20 18 -25z m-773 -10 c-3 -8 -6 -5
-6 6 -1 11 2 17 5 13 3 -3 4 -12 1 -19z m-237 -113 l0 -105 -100 0 -100 0 0
105 0 105 100 0 100 0 0 -105z m220 0 l0 -105 -100 0 -100 0 0 105 0 105 100
0 100 0 0 -105z m220 0 l0 -105 -50 0 c-43 0 -50 3 -55 23 -47 205 -50 187 35
187 l70 0 0 -105z m39 83 c-1 -13 -5 -34 -9 -48 -7 -20 -8 -16 -9 23 -1 26 4
47 9 47 6 0 10 -10 9 -22z m181 -83 l0 -105 -85 0 c-54 0 -85 4 -85 11 0 10
37 162 45 187 3 8 25 12 65 12 l60 0 0 -105z m124 90 c11 -8 37 -15 58 -15
l38 0 0 -90 0 -90 -100 0 -100 0 0 105 0 105 43 0 c23 0 51 -7 61 -15z m263
-40 c15 -30 33 -55 40 -55 9 0 13 -16 13 -50 l0 -50 -100 0 -100 0 0 105 0
105 60 0 60 0 27 -55z m53 40 c0 -8 -2 -15 -4 -15 -2 0 -6 7 -10 15 -3 8 -1
15 4 15 6 0 10 -7 10 -15z m220 -90 l0 -105 -99 0 -99 0 -4 73 c-2 39 -2 87 0
105 l3 32 100 0 99 0 0 -105z m-1037 -72 c6 -30 4 -33 -18 -33 l-25 0 1 103 1
102 17 -70 c10 -38 21 -85 24 -102z m-283 -158 l0 -105 -100 0 -100 0 0 105 0
105 100 0 100 0 0 -105z m220 0 l0 -105 -100 0 -100 0 0 105 0 105 100 0 100
0 0 -105z m84 74 c20 -102 73 -153 116 -114 20 18 20 17 20 -23 l0 -42 -100 0
-100 0 0 105 0 105 29 0 c24 0 29 -5 35 -31z m123 19 c-2 -7 -10 -30 -18 -50
-7 -21 -17 -38 -21 -38 -9 0 -23 32 -34 75 -6 24 -4 25 36 25 30 0 41 -4 37
-12z m233 -93 l0 -105 -100 0 -100 0 0 74 c0 40 5 87 11 105 l11 31 89 0 89 0
0 -105z m220 0 l0 -105 -100 0 -100 0 0 105 0 105 100 0 100 0 0 -105z m220 0
l0 -105 -100 0 -100 0 0 105 0 105 100 0 100 0 0 -105z m220 0 l0 -105 -100 0
-100 0 0 105 0 105 100 0 100 0 0 -105z m-1320 -225 l0 -110 -100 0 -100 0 0
110 0 110 100 0 100 0 0 -110z m220 0 l0 -110 -100 0 -100 0 0 110 0 110 100
0 100 0 0 -110z m220 0 l0 -110 -100 0 -100 0 0 110 0 110 100 0 100 0 0 -110z
m220 0 l0 -110 -100 0 -100 0 0 110 0 110 100 0 100 0 0 -110z m220 0 l0 -110
-100 0 -100 0 0 110 0 110 100 0 100 0 0 -110z m220 0 l0 -110 -100 0 -100 0
0 110 0 110 100 0 100 0 0 -110z m218 3 l-3 -108 -97 -3 -98 -3 0 111 0 110
100 0 101 0 -3 -107z"/>
<path d="M1782 1780 c1 -41 2 -43 10 -18 6 17 6 34 -1 45 -8 14 -10 8 -9 -27z"/>
<path d="M1214 1803 c-24 -5 -40 -40 -18 -40 8 0 14 4 14 9 0 18 19 6 23 -14
3 -14 5 -9 6 15 0 20 0 36 -1 36 -2 -1 -13 -4 -24 -6z"/>
<path d="M1372 1780 c0 -19 2 -27 5 -17 2 9 2 25 0 35 -3 9 -5 1 -5 -18z"/>
<path d="M1642 1780 c0 -19 2 -27 5 -17 2 9 2 25 0 35 -3 9 -5 1 -5 -18z"/>
<path d="M1095 1792 c-3 -3 -5 -12 -5 -21 0 -11 3 -12 8 -5 9 15 62 15 62 0 0
-11 20 14 20 26 0 8 -76 8 -85 0z"/>
<path d="M1583 1779 c1 -19 2 -19 14 -3 12 17 13 17 13 -2 0 -16 2 -17 10 -4
15 23 12 30 -14 30 -19 0 -24 -5 -23 -21z"/>
</g>
</svg>
